<svg xmlns="http://www.w3.org/2000/svg" xmlns:xlink="http://www.w3.org/1999/xlink" width="500" zoomAndPan="magnify" viewBox="0 0 375 374.999991" height="500" preserveAspectRatio="xMidYMid meet" version="1.0"><defs><clipPath id="09cf4ed391"><path d="M 2.949219 3.996094 L 372 3.996094 L 372 371.003906 L 2.949219 371.003906 Z M 2.949219 3.996094 " clip-rule="nonzero"/></clipPath><clipPath id="6b03a6c8ed"><path d="M 20.199219 3.996094 L 354.800781 3.996094 C 359.375 3.996094 363.761719 5.8125 366.996094 9.046875 C 370.230469 12.28125 372.050781 16.671875 372.050781 21.246094 L 372.050781 353.753906 C 372.050781 358.328125 370.230469 362.71875 366.996094 365.953125 C 363.761719 369.1875 359.375 371.003906 354.800781 371.003906 L 20.199219 371.003906 C 15.625 371.003906 11.238281 369.1875 8.003906 365.953125 C 4.769531 362.71875 2.949219 358.328125 2.949219 353.753906 L 2.949219 21.246094 C 2.949219 16.671875 4.769531 12.28125 8.003906 9.046875 C 11.238281 5.8125 15.625 3.996094 20.199219 3.996094 Z M 20.199219 3.996094 " clip-rule="nonzero"/></clipPath><clipPath id="e3620340e7"><path d="M 78 70 L 297 70 L 297 316 L 78 316 Z M 78 70 " clip-rule="nonzero"/></clipPath><clipPath id="6c35a4df97"><path d="M 78.292969 84.144531 L 95.371094 277.648438 C 96.078125 285.691406 101.675781 292.46875 109.433594 294.683594 L 178.613281 314.453125 C 184.453125 316.121094 190.632812 316.121094 196.46875 314.453125 L 265.648438 294.683594 C 273.410156 292.46875 279.007812 285.695312 279.714844 277.648438 L 296.792969 84.144531 C 297.46875 76.539062 291.480469 70 283.851562 70 L 91.242188 70 C 83.609375 70 77.625 76.539062 78.292969 84.144531 Z M 78.292969 84.144531 " clip-rule="nonzero"/></clipPath><linearGradient x1="17.739168" gradientTransform="matrix(6.5, 0, 0, 6.5, 31.545967, 37.499999)" y1="1.123572" x2="33.86553" gradientUnits="userSpaceOnUse" y2="45.429399" id="6b83ebe4b3"><stop stop-opacity="1" stop-color="rgb(15.042114%, 62.843323%, 94.763184%)" offset="0"/><stop stop-opacity="1" stop-color="rgb(14.912415%, 62.712097%, 94.67926%)" offset="0.015625"/><stop stop-opacity="1" stop-color="rgb(14.651489%, 62.451172%, 94.512939%)" offset="0.03125"/><stop stop-opacity="1" stop-color="rgb(14.390564%, 62.191772%, 94.345093%)" offset="0.046875"/><stop stop-opacity="1" stop-color="rgb(14.131165%, 61.930847%, 94.177246%)" offset="0.0625"/><stop stop-opacity="1" stop-color="rgb(13.870239%, 61.669922%, 94.010925%)" offset="0.078125"/><stop stop-opacity="1" stop-color="rgb(13.609314%, 61.408997%, 93.843079%)" offset="0.09375"/><stop stop-opacity="1" stop-color="rgb(13.349915%, 61.149597%, 93.675232%)" offset="0.109375"/><stop stop-opacity="1" stop-color="rgb(13.088989%, 60.888672%, 93.508911%)" offset="0.125"/><stop stop-opacity="1" stop-color="rgb(12.828064%, 60.627747%, 93.341064%)" offset="0.140625"/><stop stop-opacity="1" stop-color="rgb(12.567139%, 60.368347%, 93.173218%)" offset="0.15625"/><stop stop-opacity="1" stop-color="rgb(12.307739%, 60.107422%, 93.006897%)" offset="0.171875"/><stop stop-opacity="1" stop-color="rgb(12.046814%, 59.846497%, 92.83905%)" offset="0.1875"/><stop stop-opacity="1" stop-color="rgb(11.785889%, 59.587097%, 92.671204%)" offset="0.203125"/><stop stop-opacity="1" stop-color="rgb(11.526489%, 59.326172%, 92.504883%)" offset="0.21875"/><stop stop-opacity="1" stop-color="rgb(11.265564%, 59.065247%, 92.337036%)" offset="0.234375"/><stop stop-opacity="1" stop-color="rgb(11.004639%, 58.805847%, 92.169189%)" offset="0.245348"/><stop stop-opacity="1" stop-color="rgb(10.874939%, 58.676147%, 92.086792%)" offset="0.25"/><stop stop-opacity="1" stop-color="rgb(10.745239%, 58.544922%, 92.002869%)" offset="0.265625"/><stop stop-opacity="1" stop-color="rgb(10.484314%, 58.283997%, 91.835022%)" offset="0.28125"/><stop stop-opacity="1" stop-color="rgb(10.223389%, 58.023071%, 91.667175%)" offset="0.296875"/><stop stop-opacity="1" stop-color="rgb(9.963989%, 57.763672%, 91.500854%)" offset="0.3125"/><stop stop-opacity="1" stop-color="rgb(9.703064%, 57.502747%, 91.333008%)" offset="0.328125"/><stop stop-opacity="1" stop-color="rgb(9.442139%, 57.241821%, 91.165161%)" offset="0.34375"/><stop stop-opacity="1" stop-color="rgb(9.182739%, 56.982422%, 90.99884%)" offset="0.359375"/><stop stop-opacity="1" stop-color="rgb(8.921814%, 56.721497%, 90.830994%)" offset="0.375"/><stop stop-opacity="1" stop-color="rgb(8.660889%, 56.460571%, 90.663147%)" offset="0.390625"/><stop stop-opacity="1" stop-color="rgb(8.399963%, 56.201172%, 90.496826%)" offset="0.40625"/><stop stop-opacity="1" stop-color="rgb(8.140564%, 55.940247%, 90.328979%)" offset="0.421875"/><stop stop-opacity="1" stop-color="rgb(7.879639%, 55.679321%, 90.162659%)" offset="0.4375"/><stop stop-opacity="1" stop-color="rgb(7.618713%, 55.419922%, 89.994812%)" offset="0.453125"/><stop stop-opacity="1" stop-color="rgb(7.359314%, 55.158997%, 89.826965%)" offset="0.46875"/><stop stop-opacity="1" stop-color="rgb(7.098389%, 54.898071%, 89.660645%)" offset="0.484375"/><stop stop-opacity="1" stop-color="rgb(6.837463%, 54.638672%, 89.492798%)" offset="0.5"/><stop stop-opacity="1" stop-color="rgb(6.578064%, 54.377747%, 89.324951%)" offset="0.515625"/><stop stop-opacity="1" stop-color="rgb(6.317139%, 54.116821%, 89.15863%)" offset="0.53125"/><stop stop-opacity="1" stop-color="rgb(6.056213%, 53.855896%, 88.990784%)" offset="0.546875"/><stop stop-opacity="1" stop-color="rgb(5.796814%, 53.596497%, 88.822937%)" offset="0.5625"/><stop stop-opacity="1" stop-color="rgb(5.535889%, 53.335571%, 88.656616%)" offset="0.578125"/><stop stop-opacity="1" stop-color="rgb(5.274963%, 53.074646%, 88.48877%)" offset="0.59375"/><stop stop-opacity="1" stop-color="rgb(5.014038%, 52.815247%, 88.320923%)" offset="0.609375"/><stop stop-opacity="1" stop-color="rgb(4.754639%, 52.554321%, 88.154602%)" offset="0.625"/><stop stop-opacity="1" stop-color="rgb(4.493713%, 52.293396%, 87.986755%)" offset="0.640625"/><stop stop-opacity="1" stop-color="rgb(4.232788%, 52.033997%, 87.818909%)" offset="0.65625"/><stop stop-opacity="1" stop-color="rgb(3.973389%, 51.773071%, 87.652588%)" offset="0.671875"/><stop stop-opacity="1" stop-color="rgb(3.712463%, 51.512146%, 87.484741%)" offset="0.6875"/><stop stop-opacity="1" stop-color="rgb(3.451538%, 51.252747%, 87.316895%)" offset="0.703125"/><stop stop-opacity="1" stop-color="rgb(3.192139%, 50.991821%, 87.150574%)" offset="0.71875"/><stop stop-opacity="1" stop-color="rgb(2.931213%, 50.730896%, 86.982727%)" offset="0.734375"/><stop stop-opacity="1" stop-color="rgb(2.670288%, 50.469971%, 86.81488%)" offset="0.75"/><stop stop-opacity="1" stop-color="rgb(2.410889%, 50.210571%, 86.64856%)" offset="0.754652"/><stop stop-opacity="1" stop-color="rgb(2.281189%, 50.080872%, 86.564636%)" offset="0.765625"/><stop stop-opacity="1" stop-color="rgb(2.149963%, 49.949646%, 86.480713%)" offset="0.78125"/><stop stop-opacity="1" stop-color="rgb(1.889038%, 49.688721%, 86.312866%)" offset="0.796875"/><stop stop-opacity="1" stop-color="rgb(1.629639%, 49.429321%, 86.146545%)" offset="0.8125"/><stop stop-opacity="1" stop-color="rgb(1.368713%, 49.168396%, 85.978699%)" offset="0.828125"/><stop stop-opacity="1" stop-color="rgb(1.107788%, 48.907471%, 85.812378%)" offset="0.84375"/><stop stop-opacity="1" stop-color="rgb(0.846863%, 48.648071%, 85.644531%)" offset="0.859375"/><stop stop-opacity="1" stop-color="rgb(0.587463%, 48.387146%, 85.476685%)" offset="0.875"/><stop stop-opacity="1" stop-color="rgb(0.326538%, 48.126221%, 85.310364%)" offset="0.890625"/><stop stop-opacity="1" stop-color="rgb(0.0976562%, 47.897339%, 85.162354%)" offset="0.90625"/><stop stop-opacity="1" stop-color="rgb(0%, 47.799683%, 85.099792%)" offset="0.9375"/><stop stop-opacity="1" stop-color="rgb(0%, 47.799683%, 85.099792%)" offset="1"/></linearGradient></defs><g clip-path="url(#09cf4ed391)"><g clip-path="url(#6b03a6c8ed)"><path fill="#38b6ff" d="M 2.949219 3.996094 L 371.394531 3.996094 L 371.394531 371.003906 L 2.949219 371.003906 Z M 2.949219 3.996094 " fill-opacity="1" fill-rule="nonzero"/></g></g><g clip-path="url(#e3620340e7)"><g clip-path="url(#6c35a4df97)"><path fill="url(#6b83ebe4b3)" d="M 77.625 70 L 77.625 316.121094 L 297.46875 316.121094 L 297.46875 70 Z M 77.625 70 " fill-rule="nonzero"/></g></g><path fill="#35c1f1" d="M 187.546875 89.5 L 187.546875 296.851562 L 251.738281 278.507812 C 256.921875 277.023438 260.652344 272.5 261.121094 267.136719 L 275.976562 96.566406 C 276.308594 92.761719 273.320312 89.5 269.503906 89.5 Z M 187.546875 89.5 " fill-opacity="1" fill-rule="nonzero"/><path fill="#ffffff" d="M 246.695312 122 L 187.546875 122 L 187.546875 148 L 219.394531 148 L 217.445312 174 L 187.546875 174 L 187.546875 200 L 216.144531 200 L 214.195312 229.25 L 187.546875 238.351562 L 187.546875 265.648438 L 238.894531 248.75 L 243.445312 174 Z M 246.695312 122 " fill-opacity="1" fill-rule="nonzero"/><path fill="#d6e0e9" d="M 187.546875 122 L 187.546875 148 L 129.695312 148 L 127.746094 122 Z M 157.644531 174 L 158.945312 200 L 187.546875 200 L 187.546875 174 Z M 160.246094 213 L 134.246094 213 L 136.195312 248.75 L 187.546875 265.648438 L 187.546875 238.351562 L 160.894531 229.25 Z M 160.246094 213 " fill-opacity="1" fill-rule="nonzero"/><path fill="#000000" d="M 246.695312 122 L 243.445312 174 L 238.894531 248.75 L 187.546875 265.648438 L 136.195312 248.75 L 134.246094 213 L 160.246094 213 L 160.894531 229.25 L 187.546875 238.351562 L 214.195312 229.25 L 216.144531 200 L 158.945312 200 L 157.644531 174 L 217.445312 174 L 219.394531 148 L 129.695312 148 L 127.746094 122 Z M 253.613281 115.5 L 120.738281 115.5 L 121.265625 122.488281 L 123.214844 148.488281 L 123.664062 154.5 L 212.390625 154.5 L 211.414062 167.5 L 150.816406 167.5 L 151.152344 174.324219 L 152.453125 200.324219 L 152.765625 206.5 L 127.382812 206.5 L 127.757812 213.351562 L 129.707031 249.101562 L 129.949219 253.535156 L 134.167969 254.925781 L 185.519531 271.824219 L 187.546875 272.496094 L 189.582031 271.824219 L 240.929688 254.925781 L 245.117188 253.546875 L 245.382812 249.148438 L 249.933594 174.398438 L 253.183594 122.410156 Z M 166.492188 206.5 L 209.199219 206.5 L 207.996094 224.5 L 187.546875 231.480469 L 167.214844 224.539062 L 166.738281 212.738281 Z M 166.492188 206.5 " fill-opacity="0.05" fill-rule="nonzero"/><path fill="#000000" d="M 246.695312 122 L 243.445312 174 L 238.894531 248.75 L 187.546875 265.648438 L 136.195312 248.75 L 134.246094 213 L 160.246094 213 L 160.894531 229.25 L 187.546875 238.351562 L 214.195312 229.25 L 216.144531 200 L 158.945312 200 L 157.644531 174 L 217.445312 174 L 219.394531 148 L 129.695312 148 L 127.746094 122 Z M 250.152344 118.75 L 124.242188 118.75 L 124.503906 122.242188 L 126.453125 148.242188 L 126.679688 151.25 L 215.890625 151.25 L 214.429688 170.75 L 154.226562 170.75 L 154.394531 174.164062 L 155.695312 200.164062 L 155.851562 203.25 L 212.675781 203.25 L 211.101562 226.871094 L 187.546875 234.917969 L 164.054688 226.898438 L 163.496094 212.871094 L 163.367188 209.75 L 130.8125 209.75 L 131.003906 213.175781 L 132.953125 248.925781 L 133.074219 251.140625 L 135.183594 251.835938 L 186.53125 268.738281 L 187.546875 269.070312 L 188.558594 268.738281 L 239.910156 251.835938 L 242.003906 251.148438 L 242.140625 248.945312 L 246.691406 174.195312 L 249.941406 122.203125 Z M 250.152344 118.75 " fill-opacity="0.07" fill-rule="nonzero"/></svg>