<svg xmlns="http://www.w3.org/2000/svg" xmlns:xlink="http://www.w3.org/1999/xlink" width="500" zoomAndPan="magnify" viewBox="0 0 375 374.999991" height="500" preserveAspectRatio="xMidYMid meet" version="1.0"><defs><clipPath id="2441726471"><path d="M 2.949219 3.996094 L 372 3.996094 L 372 371.003906 L 2.949219 371.003906 Z M 2.949219 3.996094 " clip-rule="nonzero"/></clipPath><clipPath id="19bbcf44a5"><path d="M 20.199219 3.996094 L 354.800781 3.996094 C 359.375 3.996094 363.761719 5.8125 366.996094 9.046875 C 370.230469 12.28125 372.050781 16.671875 372.050781 21.246094 L 372.050781 353.753906 C 372.050781 358.328125 370.230469 362.71875 366.996094 365.953125 C 363.761719 369.1875 359.375 371.003906 354.800781 371.003906 L 20.199219 371.003906 C 15.625 371.003906 11.238281 369.1875 8.003906 365.953125 C 4.769531 362.71875 2.949219 358.328125 2.949219 353.753906 L 2.949219 21.246094 C 2.949219 16.671875 4.769531 12.28125 8.003906 9.046875 C 11.238281 5.8125 15.625 3.996094 20.199219 3.996094 Z M 20.199219 3.996094 " clip-rule="nonzero"/></clipPath><clipPath id="18435fced7"><path d="M 50.449219 38 L 324.199219 38 L 324.199219 350 L 50.449219 350 Z M 50.449219 38 " clip-rule="nonzero"/></clipPath></defs><g clip-path="url(#2441726471)"><g clip-path="url(#19bbcf44a5)"><path fill="#f16529" d="M 2.949219 3.996094 L 371.394531 3.996094 L 371.394531 371.003906 L 2.949219 371.003906 Z M 2.949219 3.996094 " fill-opacity="1" fill-rule="nonzero"/></g></g><g clip-path="url(#18435fced7)"><path fill="#e44d26" d="M 75.300781 318.300781 L 50.371094 38.378906 L 324.277344 38.378906 L 299.328125 318.261719 L 187.152344 349.382812 Z M 75.300781 318.300781 " fill-opacity="1" fill-rule="nonzero"/></g><path fill="#f16529" d="M 277.964844 300.4375 L 299.289062 61.265625 L 187.324219 61.265625 L 187.324219 325.597656 Z M 277.964844 300.4375 " fill-opacity="1" fill-rule="nonzero"/><path fill="#ebebeb" d="M 187.207031 95.59375 L 101.335938 95.59375 L 110.585938 199.414062 L 187.324219 199.414062 L 187.324219 165.085938 L 141.953125 165.085938 L 138.816406 129.933594 L 187.324219 129.933594 L 187.324219 95.59375 Z M 187.324219 254.132812 L 187.179688 254.171875 L 148.992188 243.851562 L 146.5625 216.472656 L 112.121094 216.472656 L 116.925781 270.375 L 187.167969 289.8125 L 187.324219 289.765625 Z M 187.324219 254.132812 " fill-opacity="1" fill-rule="nonzero"/><path fill="#ffffff" d="M 187.207031 199.414062 L 229.4375 199.414062 L 225.554688 243.929688 L 187.304688 254.261719 L 187.304688 289.976562 L 257.605469 270.472656 L 267.023438 165.066406 L 187.324219 165.066406 Z M 272.285156 104.808594 L 273.101562 95.59375 L 187.1875 95.59375 L 187.1875 129.921875 L 270.011719 129.921875 L 270.691406 122.207031 Z M 272.285156 104.808594 " fill-opacity="1" fill-rule="nonzero"/></svg>