<svg xmlns="http://www.w3.org/2000/svg" xmlns:xlink="http://www.w3.org/1999/xlink" width="500" zoomAndPan="magnify" viewBox="0 0 375 374.999991" height="500" preserveAspectRatio="xMidYMid meet" version="1.0"><defs><clipPath id="4e13d0e862"><path d="M 2.949219 3.996094 L 372 3.996094 L 372 371.003906 L 2.949219 371.003906 Z M 2.949219 3.996094 " clip-rule="nonzero"/></clipPath><clipPath id="820abe39aa"><path d="M 20.199219 3.996094 L 354.800781 3.996094 C 359.375 3.996094 363.761719 5.8125 366.996094 9.046875 C 370.230469 12.28125 372.050781 16.671875 372.050781 21.246094 L 372.050781 353.753906 C 372.050781 358.328125 370.230469 362.71875 366.996094 365.953125 C 363.761719 369.1875 359.375 371.003906 354.800781 371.003906 L 20.199219 371.003906 C 15.625 371.003906 11.238281 369.1875 8.003906 365.953125 C 4.769531 362.71875 2.949219 358.328125 2.949219 353.753906 L 2.949219 21.246094 C 2.949219 16.671875 4.769531 12.28125 8.003906 9.046875 C 11.238281 5.8125 15.625 3.996094 20.199219 3.996094 Z M 20.199219 3.996094 " clip-rule="nonzero"/></clipPath><clipPath id="2589628587"><path d="M 109 44.183594 L 259 44.183594 L 259 337.433594 L 109 337.433594 Z M 109 44.183594 " clip-rule="nonzero"/></clipPath></defs><g clip-path="url(#4e13d0e862)"><g clip-path="url(#820abe39aa)"><path fill="#ededed" d="M 2.949219 3.996094 L 371.394531 3.996094 L 371.394531 371.003906 L 2.949219 371.003906 Z M 2.949219 3.996094 " fill-opacity="1" fill-rule="nonzero"/></g></g><path fill="#4e7896" d="M 161.714844 199.699219 C 161.714844 199.699219 153.980469 204.402344 167.097656 205.746094 C 182.902344 207.761719 191.3125 207.425781 208.796875 204.066406 C 208.796875 204.066406 213.507812 207.089844 219.898438 209.441406 C 180.550781 226.234375 130.773438 208.433594 161.71875 199.699219 Z M 156.671875 177.867188 C 156.671875 177.867188 148.265625 184.25 161.378906 185.59375 C 178.53125 187.273438 191.984375 187.609375 215.1875 182.90625 C 215.1875 182.90625 218.214844 186.265625 223.261719 187.945312 C 175.839844 202.050781 122.703125 189.285156 156.671875 177.867188 Z M 249.496094 216.152344 C 249.496094 216.152344 255.210938 220.855469 243.105469 224.550781 C 220.570312 231.269531 148.605469 233.285156 128.421875 224.550781 C 121.359375 221.527344 134.8125 217.160156 139.183594 216.488281 C 143.554688 215.480469 145.910156 215.480469 145.910156 215.480469 C 138.175781 210.109375 94.453125 226.566406 123.714844 231.269531 C 204.089844 244.367188 270.34375 225.558594 249.492188 216.152344 Z M 165.417969 155.023438 C 165.417969 155.023438 128.761719 163.757812 152.300781 166.78125 C 162.390625 168.121094 182.234375 167.789062 200.730469 166.441406 C 215.863281 165.101562 231 162.410156 231 162.410156 C 231 162.410156 225.617188 164.761719 221.917969 167.113281 C 184.585938 176.855469 112.957031 172.488281 133.46875 162.410156 C 150.957031 154.015625 165.417969 155.023438 165.417969 155.023438 Z M 230.996094 191.632812 C 268.664062 172.152344 251.175781 153.34375 239.070312 155.695312 C 236.042969 156.367188 234.695312 157.039062 234.695312 157.039062 C 234.695312 157.039062 235.707031 155.023438 238.058594 154.351562 C 261.9375 145.953125 280.769531 179.542969 230.324219 192.640625 C 230.324219 192.640625 230.660156 192.304688 230.996094 191.632812 Z M 169.117188 244.703125 C 205.4375 247.054688 260.921875 243.359375 262.277344 226.230469 C 262.277344 226.230469 259.585938 232.949219 232.34375 237.984375 C 201.40625 243.695312 163.066406 243.023438 140.539062 239.328125 C 140.539062 239.328125 145.246094 243.359375 169.125 244.703125 Z M 169.117188 244.703125 " fill-opacity="1" fill-rule="nonzero"/><g clip-path="url(#2589628587)"><path fill="#f58219" d="M 208.125 44.183594 C 208.125 44.183594 228.976562 65.34375 188.285156 97.253906 C 155.664062 123.117188 180.882812 137.894531 188.285156 154.6875 C 169.113281 137.558594 155.324219 122.441406 164.742188 108.335938 C 178.53125 87.511719 216.539062 77.441406 208.128906 44.183594 Z M 197.371094 140.582031 C 207.125 151.667969 194.679688 161.742188 194.679688 161.742188 C 194.679688 161.742188 219.566406 148.980469 208.132812 133.195312 C 197.707031 118.082031 189.636719 110.691406 233.355469 85.503906 C 233.355469 85.503906 164.414062 102.636719 197.371094 140.589844 Z M 172.480469 320.945312 L 172.480469 288.03125 C 172.480469 279.632812 167.769531 273.921875 156 273.921875 C 149.273438 273.921875 143.554688 275.601562 138.511719 277.609375 L 140.195312 283.65625 C 143.886719 282.3125 148.601562 280.96875 153.644531 280.96875 C 160.035156 280.96875 163.0625 283.65625 163.0625 289.03125 L 163.0625 293.398438 L 159.699219 293.398438 C 143.558594 293.398438 136.160156 299.445312 136.160156 309.183594 C 136.160156 317.246094 141.203125 321.945312 150.285156 321.945312 C 156 321.945312 160.375 319.261719 164.410156 315.902344 L 165.082031 320.9375 L 172.480469 320.9375 Z M 163.0625 310.199219 C 159.699219 313.222656 156 314.902344 152.636719 314.902344 C 148.265625 314.902344 145.574219 312.214844 145.574219 307.511719 C 145.574219 302.808594 148.265625 299.449219 159.027344 299.449219 L 163.0625 299.449219 Z M 204.09375 320.945312 L 192.320312 320.945312 L 178.199219 274.929688 L 188.289062 274.929688 L 197.03125 303.144531 L 199.046875 311.539062 C 203.421875 299.449219 206.785156 287.023438 208.128906 274.929688 L 218.21875 274.929688 C 215.527344 290.046875 210.820312 306.503906 204.09375 320.945312 Z M 258.574219 320.945312 L 258.574219 288.03125 C 258.574219 279.632812 253.863281 273.921875 242.09375 273.921875 C 235.367188 273.921875 229.652344 275.601562 224.605469 277.609375 L 225.953125 283.65625 C 229.988281 282.3125 234.695312 280.96875 239.742188 280.96875 C 246.128906 280.96875 249.15625 283.65625 249.15625 289.03125 L 249.15625 293.398438 L 245.792969 293.398438 C 229.652344 293.398438 222.253906 299.445312 222.253906 309.183594 C 222.253906 317.246094 226.960938 321.945312 236.039062 321.945312 C 242.09375 321.945312 246.464844 319.261719 250.5 315.902344 L 251.175781 320.9375 L 258.574219 320.9375 Z M 249.15625 310.199219 C 245.792969 313.222656 242.09375 314.902344 238.730469 314.902344 C 234.359375 314.902344 231.667969 312.214844 231.667969 307.511719 C 231.667969 302.808594 234.359375 299.449219 245.121094 299.449219 L 249.15625 299.449219 Z M 125.734375 328.671875 C 123.042969 332.703125 119.007812 335.726562 113.964844 337.40625 L 109.589844 332.035156 C 112.953125 330.019531 116.316406 326.996094 117.660156 324.308594 C 119.003906 321.957031 119.34375 318.597656 119.34375 310.875 L 119.34375 258.476562 L 129.433594 258.476562 L 129.433594 310.203125 C 129.433594 320.613281 128.421875 324.644531 125.738281 328.675781 Z M 125.734375 328.671875 " fill-opacity="1" fill-rule="nonzero"/></g></svg>