<svg xmlns="http://www.w3.org/2000/svg" xmlns:xlink="http://www.w3.org/1999/xlink" width="500" zoomAndPan="magnify" viewBox="0 0 375 374.999991" height="500" preserveAspectRatio="xMidYMid meet" version="1.0"><defs><clipPath id="72f1e39b8e"><path d="M 3 0 L 375 0 L 375 370.5 L 3 370.5 Z M 3 0 " clip-rule="nonzero"/></clipPath><clipPath id="6f9a46b3f0"><path d="M 5 0 L 375 0 L 375 370.5 L 5 370.5 Z M 5 0 " clip-rule="nonzero"/></clipPath></defs><g clip-path="url(#72f1e39b8e)"><path fill="#ffffff" d="M 375.019531 88.097656 L 375.019531 90.121094 C 347.980469 90.121094 325.386719 118.371094 325.386719 166.386719 L 325.386719 370.585938 L 320.539062 370.585938 C 319.15625 369.019531 285.027344 325.480469 245.832031 275.464844 C 226.875 288.089844 203.738281 297.777344 168.035156 300.023438 C 154.230469 300.882812 140.730469 300.324219 127.769531 298.375 C 129.597656 342.695312 151.421875 368.5625 177.679688 368.5625 L 177.679688 370.578125 L 75.996094 370.578125 L 75.996094 368.5625 C 102.328125 368.5625 123.824219 342.550781 125.515625 298.015625 C 60.78125 287.464844 10.128906 242.339844 3.792969 169.675781 C -4.277344 81.300781 58.675781 19.558594 142.210938 11.890625 C 167.632812 9.871094 199.917969 15.929688 223.324219 21.574219 C 243.90625 26.417969 252.78125 27.628906 252.78125 0.1875 L 254.800781 0.1875 L 254.800781 101.882812 L 252.78125 101.882812 C 252.78125 75.65625 228.160156 41.753906 203.945312 27.628906 C 184.171875 17.140625 162.382812 12.296875 142.207031 13.90625 C 80.859375 19.558594 36.878906 87.351562 43.738281 166.042969 C 50.597656 244.332031 104.273438 299.617188 167.625 298 C 197.460938 297.371094 222.898438 286.71875 243.367188 272.328125 C 191.9375 206.707031 132.847656 131.332031 127.636719 125.222656 L 127.636719 275.949219 C 126.960938 275.644531 126.289062 275.308594 125.613281 274.941406 L 125.613281 122.804688 C 111.492188 105.449219 94.539062 90.113281 78.800781 90.113281 L 78.800781 88.089844 L 146.195312 88.089844 L 323.347656 317.304688 L 323.347656 166.386719 C 323.347656 118.363281 300.75 90.121094 273.308594 90.121094 L 273.308594 88.097656 Z M 375.019531 88.097656 " fill-opacity="1" fill-rule="nonzero"/></g><g clip-path="url(#6f9a46b3f0)"><path fill="#ffffff" d="M 377.175781 88.097656 L 377.175781 90.121094 C 350.140625 90.121094 327.542969 118.371094 327.542969 166.386719 L 327.542969 370.585938 L 322.699219 370.585938 C 321.3125 369.019531 287.1875 325.480469 247.988281 275.464844 C 229.03125 288.089844 205.894531 297.777344 170.195312 300.023438 C 156.386719 300.882812 142.886719 300.324219 129.925781 298.375 C 131.753906 342.695312 153.582031 368.5625 179.839844 368.5625 L 179.839844 370.578125 L 78.152344 370.578125 L 78.152344 368.5625 C 104.484375 368.5625 125.980469 342.550781 127.675781 298.015625 C 62.9375 287.464844 12.285156 242.339844 5.949219 169.675781 C -2.121094 81.300781 60.832031 19.558594 144.371094 11.890625 C 169.789062 9.871094 202.078125 15.929688 225.480469 21.574219 C 246.066406 26.417969 254.9375 27.628906 254.9375 0.1875 L 256.960938 0.1875 L 256.960938 101.882812 L 254.9375 101.882812 C 254.9375 75.65625 230.320312 41.753906 206.105469 27.628906 C 186.332031 17.140625 164.542969 12.296875 144.363281 13.90625 C 83.019531 19.558594 39.039062 87.351562 45.894531 166.042969 C 52.753906 244.332031 106.433594 299.617188 169.78125 298 C 199.621094 297.371094 225.054688 286.71875 245.527344 272.328125 C 194.09375 206.707031 135.003906 131.332031 129.792969 125.222656 L 129.792969 275.949219 C 129.117188 275.644531 128.445312 275.308594 127.769531 274.941406 L 127.769531 122.804688 C 113.648438 105.449219 96.699219 90.113281 80.960938 90.113281 L 80.960938 88.089844 L 148.355469 88.089844 L 325.507812 317.304688 L 325.507812 166.386719 C 325.507812 118.363281 302.910156 90.121094 275.46875 90.121094 L 275.46875 88.097656 Z M 377.175781 88.097656 " fill-opacity="1" fill-rule="nonzero"/></g></svg>