<svg xmlns="http://www.w3.org/2000/svg" xmlns:xlink="http://www.w3.org/1999/xlink" width="500" zoomAndPan="magnify" viewBox="0 0 375 374.999991" height="500" preserveAspectRatio="xMidYMid meet" version="1.0"><defs><clipPath id="852624643e"><path d="M 2.949219 3.996094 L 372 3.996094 L 372 371.003906 L 2.949219 371.003906 Z M 2.949219 3.996094 " clip-rule="nonzero"/></clipPath><clipPath id="09c944989c"><path d="M 20.199219 3.996094 L 354.800781 3.996094 C 359.375 3.996094 363.761719 5.8125 366.996094 9.046875 C 370.230469 12.28125 372.050781 16.671875 372.050781 21.246094 L 372.050781 353.753906 C 372.050781 358.328125 370.230469 362.71875 366.996094 365.953125 C 363.761719 369.1875 359.375 371.003906 354.800781 371.003906 L 20.199219 371.003906 C 15.625 371.003906 11.238281 369.1875 8.003906 365.953125 C 4.769531 362.71875 2.949219 358.328125 2.949219 353.753906 L 2.949219 21.246094 C 2.949219 16.671875 4.769531 12.28125 8.003906 9.046875 C 11.238281 5.8125 15.625 3.996094 20.199219 3.996094 Z M 20.199219 3.996094 " clip-rule="nonzero"/></clipPath><clipPath id="e71ad6abb2"><path d="M 51 116.777344 L 323.964844 116.777344 L 323.964844 258.527344 L 51 258.527344 Z M 51 116.777344 " clip-rule="nonzero"/></clipPath><clipPath id="535bec8ee4"><path d="M 51.253906 187.753906 C 51.253906 226.902344 112.246094 258.636719 187.480469 258.636719 C 262.714844 258.636719 323.707031 226.902344 323.707031 187.753906 C 323.707031 148.605469 262.714844 116.871094 187.480469 116.871094 C 112.246094 116.871094 51.253906 148.609375 51.253906 187.753906 " clip-rule="nonzero"/></clipPath><clipPath id="064c7f2e1d"><path d="M 51.253906 187.753906 C 51.253906 226.902344 112.246094 258.636719 187.480469 258.636719 C 262.714844 258.636719 323.707031 226.902344 323.707031 187.753906 C 323.707031 148.605469 262.714844 116.871094 187.480469 116.871094 C 112.246094 116.871094 51.253906 148.609375 51.253906 187.753906 " clip-rule="nonzero"/></clipPath><radialGradient gradientTransform="matrix(1.005453, 0, 0, 0.994547, 133.044374, 141.790207)" gradientUnits="userSpaceOnUse" r="177.916311" cx="0" id="dc6ee1cde6" cy="0" fx="0" fy="0"><stop stop-opacity="1" stop-color="rgb(68.199158%, 69.799805%, 83.499146%)" offset="0"/><stop stop-opacity="1" stop-color="rgb(68.199158%, 69.799805%, 83.499146%)" offset="0.25"/><stop stop-opacity="1" stop-color="rgb(68.164062%, 69.764709%, 83.473206%)" offset="0.296875"/><stop stop-opacity="1" stop-color="rgb(67.956543%, 69.555664%, 83.317566%)" offset="0.300781"/><stop stop-opacity="1" stop-color="rgb(67.608643%, 69.20929%, 83.059692%)" offset="0.304688"/><stop stop-opacity="1" stop-color="rgb(67.260742%, 68.861389%, 82.800293%)" offset="0.308594"/><stop stop-opacity="1" stop-color="rgb(66.914368%, 68.513489%, 82.542419%)" offset="0.3125"/><stop stop-opacity="1" stop-color="rgb(66.566467%, 68.167114%, 82.28302%)" offset="0.316406"/><stop stop-opacity="1" stop-color="rgb(66.220093%, 67.819214%, 82.025146%)" offset="0.320312"/><stop stop-opacity="1" stop-color="rgb(65.872192%, 67.472839%, 81.765747%)" offset="0.324219"/><stop stop-opacity="1" stop-color="rgb(65.525818%, 67.124939%, 81.506348%)" offset="0.328125"/><stop stop-opacity="1" stop-color="rgb(65.177917%, 66.778564%, 81.248474%)" offset="0.332031"/><stop stop-opacity="1" stop-color="rgb(64.831543%, 66.430664%, 80.989075%)" offset="0.335938"/><stop stop-opacity="1" stop-color="rgb(64.483643%, 66.08429%, 80.731201%)" offset="0.339844"/><stop stop-opacity="1" stop-color="rgb(64.135742%, 65.736389%, 80.471802%)" offset="0.34375"/><stop stop-opacity="1" stop-color="rgb(63.789368%, 65.388489%, 80.213928%)" offset="0.347656"/><stop stop-opacity="1" stop-color="rgb(63.441467%, 65.042114%, 79.954529%)" offset="0.351562"/><stop stop-opacity="1" stop-color="rgb(63.095093%, 64.694214%, 79.696655%)" offset="0.355469"/><stop stop-opacity="1" stop-color="rgb(62.747192%, 64.347839%, 79.437256%)" offset="0.359375"/><stop stop-opacity="1" stop-color="rgb(62.400818%, 63.999939%, 79.179382%)" offset="0.363281"/><stop stop-opacity="1" stop-color="rgb(62.052917%, 63.653564%, 78.919983%)" offset="0.367188"/><stop stop-opacity="1" stop-color="rgb(61.706543%, 63.305664%, 78.662109%)" offset="0.371094"/><stop stop-opacity="1" stop-color="rgb(61.358643%, 62.95929%, 78.40271%)" offset="0.375"/><stop stop-opacity="1" stop-color="rgb(61.010742%, 62.611389%, 78.144836%)" offset="0.378906"/><stop stop-opacity="1" stop-color="rgb(60.664368%, 62.263489%, 77.885437%)" offset="0.382812"/><stop stop-opacity="1" stop-color="rgb(60.316467%, 61.917114%, 77.627563%)" offset="0.386719"/><stop stop-opacity="1" stop-color="rgb(59.970093%, 61.569214%, 77.368164%)" offset="0.390625"/><stop stop-opacity="1" stop-color="rgb(59.622192%, 61.222839%, 77.108765%)" offset="0.394531"/><stop stop-opacity="1" stop-color="rgb(59.275818%, 60.874939%, 76.850891%)" offset="0.398438"/><stop stop-opacity="1" stop-color="rgb(58.927917%, 60.528564%, 76.591492%)" offset="0.402344"/><stop stop-opacity="1" stop-color="rgb(58.581543%, 60.180664%, 76.333618%)" offset="0.40625"/><stop stop-opacity="1" stop-color="rgb(58.233643%, 59.83429%, 76.074219%)" offset="0.410156"/><stop stop-opacity="1" stop-color="rgb(57.885742%, 59.486389%, 75.816345%)" offset="0.414062"/><stop stop-opacity="1" stop-color="rgb(57.539368%, 59.138489%, 75.556946%)" offset="0.417969"/><stop stop-opacity="1" stop-color="rgb(57.191467%, 58.792114%, 75.299072%)" offset="0.421875"/><stop stop-opacity="1" stop-color="rgb(56.845093%, 58.444214%, 75.039673%)" offset="0.425781"/><stop stop-opacity="1" stop-color="rgb(56.497192%, 58.097839%, 74.781799%)" offset="0.429688"/><stop stop-opacity="1" stop-color="rgb(56.150818%, 57.749939%, 74.5224%)" offset="0.433594"/><stop stop-opacity="1" stop-color="rgb(55.802917%, 57.403564%, 74.264526%)" offset="0.4375"/><stop stop-opacity="1" stop-color="rgb(55.456543%, 57.055664%, 74.005127%)" offset="0.441406"/><stop stop-opacity="1" stop-color="rgb(55.108643%, 56.70929%, 73.747253%)" offset="0.445312"/><stop stop-opacity="1" stop-color="rgb(54.760742%, 56.361389%, 73.487854%)" offset="0.449219"/><stop stop-opacity="1" stop-color="rgb(54.414368%, 56.013489%, 73.22998%)" offset="0.453125"/><stop stop-opacity="1" stop-color="rgb(54.066467%, 55.667114%, 72.970581%)" offset="0.457031"/><stop stop-opacity="1" stop-color="rgb(53.720093%, 55.319214%, 72.711182%)" offset="0.460938"/><stop stop-opacity="1" stop-color="rgb(53.372192%, 54.972839%, 72.453308%)" offset="0.464844"/><stop stop-opacity="1" stop-color="rgb(53.025818%, 54.624939%, 72.193909%)" offset="0.46875"/><stop stop-opacity="1" stop-color="rgb(52.677917%, 54.278564%, 71.936035%)" offset="0.472656"/><stop stop-opacity="1" stop-color="rgb(52.331543%, 53.930664%, 71.676636%)" offset="0.476562"/><stop stop-opacity="1" stop-color="rgb(51.983643%, 53.58429%, 71.418762%)" offset="0.480469"/><stop stop-opacity="1" stop-color="rgb(51.635742%, 53.236389%, 71.159363%)" offset="0.484375"/><stop stop-opacity="1" stop-color="rgb(51.289368%, 52.888489%, 70.901489%)" offset="0.488281"/><stop stop-opacity="1" stop-color="rgb(50.941467%, 52.542114%, 70.64209%)" offset="0.492188"/><stop stop-opacity="1" stop-color="rgb(50.595093%, 52.194214%, 70.384216%)" offset="0.496094"/><stop stop-opacity="1" stop-color="rgb(50.247192%, 51.847839%, 70.124817%)" offset="0.5"/><stop stop-opacity="1" stop-color="rgb(49.900818%, 51.499939%, 69.866943%)" offset="0.503906"/><stop stop-opacity="1" stop-color="rgb(49.552917%, 51.153564%, 69.607544%)" offset="0.507812"/><stop stop-opacity="1" stop-color="rgb(49.206543%, 50.805664%, 69.34967%)" offset="0.511719"/><stop stop-opacity="1" stop-color="rgb(48.858643%, 50.45929%, 69.090271%)" offset="0.515625"/><stop stop-opacity="1" stop-color="rgb(48.510742%, 50.111389%, 68.832397%)" offset="0.519531"/><stop stop-opacity="1" stop-color="rgb(48.164368%, 49.763489%, 68.572998%)" offset="0.523438"/><stop stop-opacity="1" stop-color="rgb(47.816467%, 49.417114%, 68.313599%)" offset="0.527344"/><stop stop-opacity="1" stop-color="rgb(47.470093%, 49.069214%, 68.055725%)" offset="0.53125"/><stop stop-opacity="1" stop-color="rgb(47.122192%, 48.722839%, 67.796326%)" offset="0.535156"/><stop stop-opacity="1" stop-color="rgb(46.775818%, 48.374939%, 67.538452%)" offset="0.539062"/><stop stop-opacity="1" stop-color="rgb(46.427917%, 48.028564%, 67.279053%)" offset="0.542969"/><stop stop-opacity="1" stop-color="rgb(46.081543%, 47.680664%, 67.021179%)" offset="0.546875"/><stop stop-opacity="1" stop-color="rgb(45.733643%, 47.33429%, 66.76178%)" offset="0.550781"/><stop stop-opacity="1" stop-color="rgb(45.385742%, 46.986389%, 66.503906%)" offset="0.554688"/><stop stop-opacity="1" stop-color="rgb(45.039368%, 46.638489%, 66.244507%)" offset="0.558594"/><stop stop-opacity="1" stop-color="rgb(44.691467%, 46.292114%, 65.986633%)" offset="0.5625"/><stop stop-opacity="1" stop-color="rgb(44.345093%, 45.944214%, 65.727234%)" offset="0.566406"/><stop stop-opacity="1" stop-color="rgb(43.997192%, 45.597839%, 65.46936%)" offset="0.570312"/><stop stop-opacity="1" stop-color="rgb(43.650818%, 45.249939%, 65.209961%)" offset="0.574219"/><stop stop-opacity="1" stop-color="rgb(43.302917%, 44.903564%, 64.952087%)" offset="0.578125"/><stop stop-opacity="1" stop-color="rgb(42.956543%, 44.555664%, 64.692688%)" offset="0.582031"/><stop stop-opacity="1" stop-color="rgb(42.608643%, 44.20929%, 64.434814%)" offset="0.585938"/><stop stop-opacity="1" stop-color="rgb(42.260742%, 43.861389%, 64.175415%)" offset="0.589844"/><stop stop-opacity="1" stop-color="rgb(41.914368%, 43.513489%, 63.916016%)" offset="0.59375"/><stop stop-opacity="1" stop-color="rgb(41.566467%, 43.167114%, 63.658142%)" offset="0.597656"/><stop stop-opacity="1" stop-color="rgb(41.220093%, 42.819214%, 63.398743%)" offset="0.601562"/><stop stop-opacity="1" stop-color="rgb(40.872192%, 42.472839%, 63.140869%)" offset="0.605469"/><stop stop-opacity="1" stop-color="rgb(40.525818%, 42.124939%, 62.88147%)" offset="0.609375"/><stop stop-opacity="1" stop-color="rgb(40.177917%, 41.778564%, 62.623596%)" offset="0.613281"/><stop stop-opacity="1" stop-color="rgb(39.831543%, 41.430664%, 62.364197%)" offset="0.617188"/><stop stop-opacity="1" stop-color="rgb(39.483643%, 41.08429%, 62.106323%)" offset="0.621094"/><stop stop-opacity="1" stop-color="rgb(39.135742%, 40.736389%, 61.846924%)" offset="0.625"/><stop stop-opacity="1" stop-color="rgb(38.789368%, 40.388489%, 61.58905%)" offset="0.628906"/><stop stop-opacity="1" stop-color="rgb(38.441467%, 40.042114%, 61.329651%)" offset="0.632812"/><stop stop-opacity="1" stop-color="rgb(38.095093%, 39.694214%, 61.071777%)" offset="0.636719"/><stop stop-opacity="1" stop-color="rgb(37.747192%, 39.347839%, 60.812378%)" offset="0.640625"/><stop stop-opacity="1" stop-color="rgb(37.400818%, 38.999939%, 60.554504%)" offset="0.644531"/><stop stop-opacity="1" stop-color="rgb(37.052917%, 38.653564%, 60.295105%)" offset="0.648438"/><stop stop-opacity="1" stop-color="rgb(36.706543%, 38.305664%, 60.037231%)" offset="0.652344"/><stop stop-opacity="1" stop-color="rgb(36.358643%, 37.95929%, 59.777832%)" offset="0.65625"/><stop stop-opacity="1" stop-color="rgb(36.010742%, 37.611389%, 59.518433%)" offset="0.660156"/><stop stop-opacity="1" stop-color="rgb(35.664368%, 37.263489%, 59.260559%)" offset="0.664062"/><stop stop-opacity="1" stop-color="rgb(35.316467%, 36.917114%, 59.00116%)" offset="0.667969"/><stop stop-opacity="1" stop-color="rgb(34.970093%, 36.569214%, 58.743286%)" offset="0.671875"/><stop stop-opacity="1" stop-color="rgb(34.622192%, 36.222839%, 58.483887%)" offset="0.675781"/><stop stop-opacity="1" stop-color="rgb(34.275818%, 35.874939%, 58.226013%)" offset="0.679688"/><stop stop-opacity="1" stop-color="rgb(33.927917%, 35.528564%, 57.966614%)" offset="0.683594"/><stop stop-opacity="1" stop-color="rgb(33.581543%, 35.180664%, 57.70874%)" offset="0.6875"/><stop stop-opacity="1" stop-color="rgb(33.233643%, 34.83429%, 57.449341%)" offset="0.691406"/><stop stop-opacity="1" stop-color="rgb(32.885742%, 34.486389%, 57.191467%)" offset="0.695312"/><stop stop-opacity="1" stop-color="rgb(32.539368%, 34.138489%, 56.932068%)" offset="0.699219"/><stop stop-opacity="1" stop-color="rgb(32.191467%, 33.792114%, 56.674194%)" offset="0.703125"/><stop stop-opacity="1" stop-color="rgb(31.845093%, 33.444214%, 56.414795%)" offset="0.707031"/><stop stop-opacity="1" stop-color="rgb(31.497192%, 33.097839%, 56.156921%)" offset="0.710938"/><stop stop-opacity="1" stop-color="rgb(31.150818%, 32.749939%, 55.897522%)" offset="0.714844"/><stop stop-opacity="1" stop-color="rgb(30.802917%, 32.403564%, 55.639648%)" offset="0.71875"/><stop stop-opacity="1" stop-color="rgb(30.456543%, 32.055664%, 55.380249%)" offset="0.722656"/><stop stop-opacity="1" stop-color="rgb(30.108643%, 31.70929%, 55.122375%)" offset="0.726562"/><stop stop-opacity="1" stop-color="rgb(29.760742%, 31.361389%, 54.862976%)" offset="0.730469"/><stop stop-opacity="1" stop-color="rgb(29.414368%, 31.013489%, 54.603577%)" offset="0.734375"/><stop stop-opacity="1" stop-color="rgb(29.066467%, 30.667114%, 54.345703%)" offset="0.738281"/><stop stop-opacity="1" stop-color="rgb(28.720093%, 30.319214%, 54.086304%)" offset="0.742188"/><stop stop-opacity="1" stop-color="rgb(28.372192%, 29.972839%, 53.82843%)" offset="0.746094"/><stop stop-opacity="1" stop-color="rgb(28.199768%, 29.798889%, 53.69873%)" offset="1"/></radialGradient></defs><g clip-path="url(#852624643e)"><g clip-path="url(#09c944989c)"><path fill="#aeb2d5" d="M 2.949219 3.996094 L 371.394531 3.996094 L 371.394531 371.003906 L 2.949219 371.003906 Z M 2.949219 3.996094 " fill-opacity="1" fill-rule="nonzero"/></g></g><g clip-path="url(#e71ad6abb2)"><g clip-path="url(#535bec8ee4)"><g clip-path="url(#064c7f2e1d)"><path fill="url(#dc6ee1cde6)" d="M 51.253906 116.871094 L 51.253906 258.527344 L 323.707031 258.527344 L 323.707031 116.871094 Z M 51.253906 116.871094 " fill-rule="nonzero"/></g></g></g><path fill="#777bb3" d="M 187.480469 253.375 C 259.777344 253.375 318.386719 223.996094 318.386719 187.753906 C 318.386719 151.511719 259.777344 122.132812 187.480469 122.132812 C 115.183594 122.132812 56.574219 151.511719 56.574219 187.753906 C 56.574219 223.996094 115.183594 253.375 187.480469 253.375 " fill-opacity="1" fill-rule="nonzero"/><path fill="#000000" d="M 125.265625 195.890625 C 131.207031 195.890625 135.648438 194.804688 138.453125 192.667969 C 141.230469 190.550781 143.152344 186.886719 144.15625 181.773438 C 145.09375 176.992188 144.738281 173.65625 143.09375 171.855469 C 141.417969 170.015625 137.789062 169.082031 132.308594 169.082031 L 122.808594 169.082031 L 117.542969 195.890625 Z M 94.195312 228.910156 C 93.753906 228.910156 93.332031 228.714844 93.054688 228.378906 C 92.757812 228.023438 92.65625 227.621094 92.742188 227.167969 L 106.699219 156.132812 C 106.769531 155.789062 106.9375 155.507812 107.210938 155.285156 C 107.484375 155.0625 107.796875 154.953125 108.152344 154.953125 L 138.234375 154.953125 C 147.6875 154.953125 154.726562 157.484375 159.148438 162.5 C 163.59375 167.535156 164.96875 174.574219 163.230469 183.417969 C 162.523438 187.019531 161.304688 190.367188 159.613281 193.363281 C 157.917969 196.363281 155.679688 199.140625 152.957031 201.617188 C 149.695312 204.632812 146.007812 206.820312 142 208.109375 C 138.058594 209.378906 132.992188 210.023438 126.949219 210.023438 L 114.769531 210.023438 L 111.289062 227.726562 C 111.222656 228.070312 111.050781 228.355469 110.777344 228.578125 C 110.507812 228.800781 110.191406 228.910156 109.839844 228.910156 L 94.191406 228.910156 Z M 94.195312 228.910156 " fill-opacity="1" fill-rule="nonzero"/><path fill="#ffffff" d="M 124.027344 170.546875 L 132.308594 170.546875 C 138.921875 170.546875 141.21875 171.980469 142 172.835938 C 143.292969 174.257812 143.539062 177.25 142.707031 181.496094 C 141.769531 186.246094 140.039062 189.617188 137.554688 191.507812 C 135.011719 193.445312 130.875 194.425781 125.265625 194.425781 L 119.339844 194.425781 L 124.03125 170.546875 Z M 138.234375 153.488281 L 108.152344 153.488281 C 107.808594 153.488281 107.476562 153.542969 107.152344 153.660156 C 106.832031 153.773438 106.535156 153.9375 106.273438 154.15625 C 106.007812 154.371094 105.789062 154.625 105.613281 154.917969 C 105.4375 155.207031 105.316406 155.519531 105.25 155.851562 L 91.292969 226.894531 C 91.25 227.105469 91.234375 227.316406 91.242188 227.535156 C 91.246094 227.75 91.277344 227.960938 91.332031 228.171875 C 91.382812 228.378906 91.460938 228.582031 91.558594 228.773438 C 91.65625 228.964844 91.777344 229.144531 91.914062 229.3125 C 92.054688 229.476562 92.207031 229.625 92.378906 229.757812 C 92.550781 229.890625 92.738281 230.003906 92.933594 230.09375 C 93.132812 230.1875 93.335938 230.257812 93.550781 230.304688 C 93.761719 230.351562 93.976562 230.375 94.195312 230.375 L 109.839844 230.375 C 110.183594 230.375 110.515625 230.316406 110.835938 230.203125 C 111.160156 230.089844 111.453125 229.921875 111.71875 229.707031 C 111.984375 229.492188 112.203125 229.238281 112.378906 228.945312 C 112.554688 228.652344 112.675781 228.339844 112.742188 228.007812 L 115.988281 211.488281 L 126.949219 211.488281 C 133.148438 211.488281 138.367188 210.820312 142.460938 209.503906 C 146.667969 208.148438 150.542969 205.855469 153.96875 202.6875 C 156.800781 200.109375 159.140625 197.210938 160.90625 194.082031 C 162.667969 190.949219 163.945312 187.457031 164.683594 183.699219 C 166.515625 174.386719 165.027344 166.933594 160.261719 161.539062 C 155.546875 156.199219 148.136719 153.492188 138.234375 153.492188 M 115.75 197.355469 L 125.269531 197.355469 C 131.574219 197.355469 136.273438 196.179688 139.359375 193.828125 C 142.445312 191.476562 144.527344 187.554688 145.609375 182.054688 C 146.644531 176.777344 146.175781 173.050781 144.195312 170.878906 C 142.21875 168.710938 138.253906 167.625 132.3125 167.625 L 121.59375 167.625 L 115.753906 197.355469 M 138.238281 156.414062 C 147.285156 156.414062 153.886719 158.765625 158.039062 163.460938 C 162.1875 168.160156 163.4375 174.71875 161.78125 183.140625 C 161.101562 186.609375 159.949219 189.78125 158.324219 192.652344 C 156.703125 195.527344 154.578125 198.15625 151.957031 200.542969 C 148.835938 203.433594 145.363281 205.492188 141.546875 206.722656 C 137.726562 207.953125 132.863281 208.566406 126.949219 208.566406 L 113.550781 208.566406 L 109.839844 227.449219 L 94.195312 227.449219 L 108.15625 156.421875 L 138.238281 156.421875 " fill-opacity="1" fill-rule="nonzero"/><path fill="#000000" d="M 199.097656 210.023438 C 198.65625 210.023438 198.238281 209.828125 197.957031 209.492188 C 197.679688 209.152344 197.5625 208.710938 197.648438 208.28125 L 203.820312 176.851562 C 204.410156 173.863281 204.265625 171.714844 203.414062 170.808594 C 202.894531 170.253906 201.332031 169.328125 196.710938 169.328125 L 185.523438 169.328125 L 177.761719 208.839844 C 177.695312 209.183594 177.523438 209.464844 177.25 209.6875 C 176.976562 209.910156 176.664062 210.023438 176.308594 210.023438 L 160.789062 210.023438 C 160.570312 210.023438 160.359375 209.976562 160.160156 209.882812 C 159.960938 209.789062 159.789062 209.660156 159.648438 209.488281 C 159.507812 209.320312 159.410156 209.132812 159.355469 208.921875 C 159.300781 208.707031 159.296875 208.496094 159.339844 208.28125 L 173.296875 137.246094 C 173.363281 136.902344 173.535156 136.621094 173.808594 136.398438 C 174.078125 136.175781 174.394531 136.0625 174.746094 136.0625 L 190.269531 136.0625 C 190.488281 136.0625 190.699219 136.109375 190.898438 136.203125 C 191.097656 136.296875 191.269531 136.425781 191.410156 136.59375 C 191.546875 136.765625 191.644531 136.953125 191.699219 137.164062 C 191.753906 137.378906 191.761719 137.589844 191.71875 137.804688 L 188.351562 154.949219 L 200.382812 154.949219 C 209.550781 154.949219 215.765625 156.546875 219.386719 159.835938 C 223.082031 163.191406 224.230469 168.554688 222.8125 175.785156 L 216.316406 208.839844 C 216.25 209.183594 216.078125 209.464844 215.804688 209.6875 C 215.53125 209.910156 215.21875 210.023438 214.867188 210.023438 Z M 199.097656 210.023438 " fill-opacity="1" fill-rule="nonzero"/><path fill="#ffffff" d="M 190.269531 134.601562 L 174.75 134.601562 C 174.40625 134.601562 174.070312 134.660156 173.75 134.773438 C 173.425781 134.886719 173.132812 135.054688 172.867188 135.269531 C 172.601562 135.484375 172.382812 135.738281 172.207031 136.03125 C 172.03125 136.320312 171.910156 136.632812 171.847656 136.96875 L 157.886719 208.003906 C 157.847656 208.214844 157.828125 208.425781 157.835938 208.644531 C 157.839844 208.859375 157.871094 209.070312 157.925781 209.28125 C 157.980469 209.488281 158.054688 209.691406 158.152344 209.882812 C 158.253906 210.074219 158.371094 210.253906 158.507812 210.421875 C 158.648438 210.585938 158.804688 210.734375 158.976562 210.867188 C 159.148438 211 159.332031 211.113281 159.53125 211.203125 C 159.726562 211.296875 159.929688 211.367188 160.144531 211.414062 C 160.355469 211.460938 160.574219 211.484375 160.789062 211.484375 L 176.3125 211.484375 C 176.652344 211.484375 176.988281 211.425781 177.308594 211.3125 C 177.632812 211.199219 177.925781 211.03125 178.191406 210.816406 C 178.457031 210.601562 178.675781 210.347656 178.851562 210.054688 C 179.027344 209.761719 179.148438 209.449219 179.214844 209.117188 L 186.742188 170.789062 L 196.710938 170.789062 C 201.324219 170.789062 202.292969 171.761719 202.332031 171.804688 C 202.613281 172.101562 202.980469 173.480469 202.371094 176.570312 L 196.199219 208.003906 C 196.15625 208.214844 196.140625 208.425781 196.144531 208.644531 C 196.152344 208.859375 196.179688 209.070312 196.234375 209.28125 C 196.289062 209.488281 196.363281 209.691406 196.464844 209.882812 C 196.5625 210.074219 196.679688 210.253906 196.820312 210.421875 C 196.957031 210.585938 197.113281 210.734375 197.285156 210.867188 C 197.457031 211 197.640625 211.113281 197.839844 211.203125 C 198.035156 211.296875 198.242188 211.367188 198.453125 211.414062 C 198.667969 211.460938 198.882812 211.484375 199.101562 211.484375 L 214.867188 211.484375 C 215.210938 211.484375 215.542969 211.425781 215.867188 211.3125 C 216.1875 211.199219 216.484375 211.03125 216.746094 210.816406 C 217.011719 210.601562 217.234375 210.347656 217.40625 210.054688 C 217.582031 209.761719 217.703125 209.449219 217.769531 209.117188 L 224.261719 176.0625 C 225.789062 168.304688 224.484375 162.480469 220.390625 158.761719 C 216.484375 155.210938 209.941406 153.488281 200.386719 153.488281 L 190.144531 153.488281 L 193.171875 138.082031 C 193.214844 137.871094 193.230469 137.65625 193.226562 137.441406 C 193.21875 137.226562 193.1875 137.015625 193.136719 136.804688 C 193.082031 136.597656 193.007812 136.394531 192.90625 136.203125 C 192.808594 136.011719 192.691406 135.832031 192.550781 135.664062 C 192.414062 135.5 192.257812 135.347656 192.085938 135.21875 C 191.914062 135.085938 191.730469 134.972656 191.53125 134.878906 C 191.335938 134.789062 191.128906 134.71875 190.917969 134.671875 C 190.703125 134.625 190.488281 134.601562 190.269531 134.601562 M 190.269531 137.523438 L 186.558594 156.410156 L 200.386719 156.410156 C 209.085938 156.410156 215.085938 157.914062 218.390625 160.914062 C 221.695312 163.914062 222.683594 168.78125 221.363281 175.503906 L 214.867188 208.558594 L 199.101562 208.558594 L 205.277344 177.128906 C 205.976562 173.554688 205.71875 171.117188 204.5 169.816406 C 203.28125 168.515625 200.683594 167.863281 196.710938 167.863281 L 184.304688 167.863281 L 176.3125 208.558594 L 160.789062 208.558594 L 174.75 137.523438 L 190.269531 137.523438 " fill-opacity="1" fill-rule="nonzero"/><path fill="#000000" d="M 247.371094 195.890625 C 253.316406 195.890625 257.753906 194.804688 260.558594 192.667969 C 263.339844 190.550781 265.257812 186.886719 266.261719 181.773438 C 267.199219 176.992188 266.84375 173.65625 265.199219 171.855469 C 263.523438 170.015625 259.894531 169.082031 254.414062 169.082031 L 244.914062 169.082031 L 239.648438 195.890625 Z M 216.296875 228.910156 C 215.855469 228.910156 215.4375 228.714844 215.15625 228.375 C 214.863281 228.023438 214.757812 227.617188 214.847656 227.167969 L 228.804688 156.132812 C 228.871094 155.789062 229.042969 155.507812 229.316406 155.285156 C 229.589844 155.0625 229.902344 154.949219 230.257812 154.949219 L 260.339844 154.949219 C 269.792969 154.949219 276.828125 157.484375 281.253906 162.496094 C 285.699219 167.53125 287.070312 174.570312 285.335938 183.414062 C 284.625 187.019531 283.410156 190.367188 281.71875 193.363281 C 280.023438 196.363281 277.78125 199.136719 275.058594 201.613281 C 271.800781 204.632812 268.109375 206.820312 264.105469 208.109375 C 260.160156 209.378906 255.097656 210.023438 249.050781 210.023438 L 236.863281 210.023438 L 233.386719 227.726562 C 233.316406 228.070312 233.148438 228.351562 232.875 228.574219 C 232.601562 228.796875 232.289062 228.910156 231.933594 228.910156 L 216.289062 228.910156 Z M 216.296875 228.910156 " fill-opacity="1" fill-rule="nonzero"/><path fill="#ffffff" d="M 246.132812 170.546875 L 254.414062 170.546875 C 261.027344 170.546875 263.324219 171.980469 264.105469 172.835938 C 265.402344 174.257812 265.644531 177.25 264.8125 181.496094 C 263.878906 186.246094 262.144531 189.617188 259.660156 191.507812 C 257.117188 193.445312 252.980469 194.425781 247.371094 194.425781 L 241.441406 194.425781 Z M 260.339844 153.488281 L 230.253906 153.488281 C 229.914062 153.488281 229.578125 153.542969 229.257812 153.660156 C 228.933594 153.773438 228.640625 153.9375 228.375 154.15625 C 228.109375 154.371094 227.890625 154.625 227.714844 154.917969 C 227.539062 155.207031 227.417969 155.519531 227.355469 155.851562 L 213.394531 226.894531 C 213.355469 227.105469 213.335938 227.316406 213.34375 227.535156 C 213.347656 227.75 213.378906 227.960938 213.433594 228.171875 C 213.484375 228.378906 213.5625 228.582031 213.660156 228.773438 C 213.757812 228.964844 213.878906 229.144531 214.015625 229.3125 C 214.15625 229.476562 214.308594 229.625 214.484375 229.757812 C 214.65625 229.890625 214.839844 230.003906 215.035156 230.09375 C 215.234375 230.1875 215.4375 230.257812 215.652344 230.304688 C 215.863281 230.351562 216.078125 230.375 216.296875 230.375 L 231.941406 230.375 C 232.285156 230.375 232.617188 230.316406 232.941406 230.203125 C 233.261719 230.089844 233.558594 229.921875 233.820312 229.707031 C 234.085938 229.492188 234.304688 229.238281 234.480469 228.945312 C 234.65625 228.652344 234.777344 228.339844 234.84375 228.007812 L 238.089844 211.488281 L 249.050781 211.488281 C 255.25 211.488281 260.46875 210.820312 264.5625 209.503906 C 268.769531 208.148438 272.644531 205.855469 276.070312 202.6875 C 278.90625 200.109375 281.238281 197.210938 283.007812 194.082031 C 284.777344 190.949219 286.046875 187.457031 286.785156 183.699219 C 288.617188 174.386719 287.128906 166.933594 282.367188 161.539062 C 277.648438 156.199219 270.238281 153.492188 260.335938 153.492188 M 237.855469 197.355469 L 247.371094 197.355469 C 253.675781 197.355469 258.375 196.179688 261.460938 193.828125 C 264.546875 191.476562 266.628906 187.554688 267.710938 182.054688 C 268.75 176.777344 268.277344 173.050781 266.296875 170.878906 C 264.320312 168.710938 260.355469 167.625 254.414062 167.625 L 243.695312 167.625 L 237.855469 197.355469 M 260.339844 156.414062 C 269.386719 156.414062 275.988281 158.765625 280.140625 163.460938 C 284.289062 168.160156 285.539062 174.71875 283.882812 183.140625 C 283.203125 186.609375 282.050781 189.78125 280.425781 192.652344 C 278.804688 195.527344 276.679688 198.15625 274.058594 200.542969 C 270.9375 203.433594 267.464844 205.492188 263.648438 206.722656 C 259.828125 207.953125 254.964844 208.566406 249.050781 208.566406 L 235.652344 208.566406 L 231.941406 227.449219 L 216.296875 227.449219 L 230.257812 156.414062 L 260.339844 156.414062 " fill-opacity="1" fill-rule="nonzero"/></svg>