<svg xmlns="http://www.w3.org/2000/svg" xmlns:xlink="http://www.w3.org/1999/xlink" width="500" zoomAndPan="magnify" viewBox="0 0 375 374.999991" height="500" preserveAspectRatio="xMidYMid meet" version="1.0"><defs><clipPath id="121a4c651d"><path d="M 2.949219 3.996094 L 372 3.996094 L 372 371.003906 L 2.949219 371.003906 Z M 2.949219 3.996094 " clip-rule="nonzero"/></clipPath><clipPath id="5f4e18ba20"><path d="M 20.199219 3.996094 L 354.800781 3.996094 C 359.375 3.996094 363.761719 5.8125 366.996094 9.046875 C 370.230469 12.28125 372.050781 16.671875 372.050781 21.246094 L 372.050781 353.753906 C 372.050781 358.328125 370.230469 362.71875 366.996094 365.953125 C 363.761719 369.1875 359.375 371.003906 354.800781 371.003906 L 20.199219 371.003906 C 15.625 371.003906 11.238281 369.1875 8.003906 365.953125 C 4.769531 362.71875 2.949219 358.328125 2.949219 353.753906 L 2.949219 21.246094 C 2.949219 16.671875 4.769531 12.28125 8.003906 9.046875 C 11.238281 5.8125 15.625 3.996094 20.199219 3.996094 Z M 20.199219 3.996094 " clip-rule="nonzero"/></clipPath><clipPath id="918fcfb5b6"><path d="M 57 204 L 165 204 L 165 256.507812 L 57 256.507812 Z M 57 204 " clip-rule="nonzero"/></clipPath></defs><g clip-path="url(#121a4c651d)"><g clip-path="url(#5f4e18ba20)"><path fill="#f1eded" d="M 2.949219 3.996094 L 371.394531 3.996094 L 371.394531 371.003906 L 2.949219 371.003906 Z M 2.949219 3.996094 " fill-opacity="1" fill-rule="nonzero"/></g></g><g clip-path="url(#918fcfb5b6)"><path fill="#00618a" d="M 57.15625 244.582031 L 65.738281 244.582031 L 65.738281 210.675781 L 79.03125 240.246094 C 80.597656 243.808594 82.746094 245.089844 86.953125 245.089844 C 91.164062 245.089844 93.226562 243.824219 94.796875 240.246094 L 108.089844 210.675781 L 108.089844 244.597656 L 116.675781 244.597656 L 116.675781 210.730469 C 116.675781 207.429688 115.351562 205.832031 112.628906 205.007812 C 106.109375 202.96875 101.730469 204.730469 99.753906 209.136719 L 86.710938 238.320312 L 74.078125 209.125 C 72.179688 204.71875 67.722656 202.957031 61.199219 204.992188 C 58.476562 205.820312 57.15625 207.417969 57.15625 210.71875 Z M 123.808594 216.976562 L 132.394531 216.976562 L 132.394531 235.664062 C 132.3125 236.679688 132.71875 239.0625 137.421875 239.136719 C 139.820312 239.175781 155.941406 239.136719 156.089844 239.136719 L 156.089844 216.882812 L 164.691406 216.882812 C 164.730469 216.882812 164.683594 247.226562 164.683594 247.355469 C 164.730469 254.835938 155.402344 256.464844 151.105469 256.589844 L 123.996094 256.589844 L 123.996094 250.808594 L 151.152344 250.808594 C 156.675781 250.222656 156.027344 247.476562 156.027344 246.550781 L 156.027344 244.296875 L 137.78125 244.296875 C 129.289062 244.222656 123.886719 240.511719 123.816406 236.25 C 123.8125 235.867188 124 217.160156 123.8125 216.972656 Z M 123.808594 216.976562 " fill-opacity="1" fill-rule="nonzero"/></g><path fill="#e48e00" d="M 171.308594 244.582031 L 195.992188 244.582031 C 198.878906 244.582031 201.6875 243.976562 203.917969 242.929688 C 207.632812 241.226562 209.449219 238.910156 209.449219 235.882812 L 209.449219 229.605469 C 209.449219 227.128906 207.386719 224.816406 203.339844 223.273438 C 201.195312 222.445312 198.554688 222.007812 195.996094 222.007812 L 185.59375 222.007812 C 182.125 222.007812 180.476562 220.960938 180.0625 218.648438 C 179.980469 218.375 179.980469 218.140625 179.980469 217.878906 L 179.980469 213.96875 C 179.980469 213.75 179.980469 213.527344 180.0625 213.253906 C 180.476562 211.492188 181.382812 210.996094 184.4375 210.707031 C 184.683594 210.707031 185.015625 210.652344 185.265625 210.652344 L 209.78125 210.652344 L 209.78125 204.925781 L 185.675781 204.925781 C 182.210938 204.925781 180.394531 205.144531 178.742188 205.640625 C 173.617188 207.238281 171.386719 209.785156 171.386719 214.191406 L 171.386719 219.199219 C 171.386719 223.054688 175.765625 226.359375 183.109375 227.128906 C 183.9375 227.183594 184.761719 227.238281 185.585938 227.238281 L 194.5 227.238281 C 194.832031 227.238281 195.164062 227.238281 195.410156 227.292969 C 198.132812 227.515625 199.289062 228.011719 200.113281 229 C 200.625 229.511719 200.777344 229.992188 200.777344 230.527344 L 200.777344 235.539062 C 200.777344 236.144531 200.363281 236.917969 199.539062 237.574219 C 198.796875 238.238281 197.558594 238.675781 195.90625 238.789062 C 195.574219 238.789062 195.328125 238.84375 195 238.84375 L 171.304688 238.84375 L 171.304688 244.570312 Z M 263.003906 234.617188 C 263.003906 240.507812 267.375 243.8125 276.210938 244.472656 C 277.035156 244.539062 277.859375 244.574219 278.6875 244.582031 L 301.058594 244.582031 L 301.058594 238.855469 L 278.519531 238.855469 C 273.484375 238.855469 271.585938 237.589844 271.585938 234.5625 L 271.585938 204.9375 L 263 204.9375 L 263 234.613281 Z M 214.925781 234.914062 L 214.925781 214.5 C 214.925781 209.316406 218.5625 206.167969 225.761719 205.175781 C 226.527344 205.066406 227.300781 205.011719 228.078125 205.011719 L 244.375 205.011719 C 245.175781 205.011719 245.976562 205.066406 246.773438 205.175781 C 253.96875 206.167969 257.609375 209.3125 257.609375 214.5 L 257.609375 234.914062 C 257.609375 239.121094 256.0625 241.375 252.5 242.84375 L 260.957031 250.480469 L 250.988281 250.480469 L 244.148438 244.300781 L 237.257812 244.738281 L 228.078125 244.738281 C 226.507812 244.738281 224.851562 244.515625 223.03125 244.019531 C 217.558594 242.53125 214.925781 239.660156 214.925781 234.914062 Z M 224.191406 234.40625 C 224.191406 234.683594 224.273438 234.957031 224.355469 235.289062 C 224.867188 237.664062 227.085938 238.988281 230.464844 238.988281 L 238.265625 238.988281 L 231.101562 232.515625 L 241.070312 232.515625 L 247.304688 238.160156 C 248.457031 237.546875 249.210938 236.605469 249.464844 235.402344 C 249.550781 235.125 249.550781 234.847656 249.550781 234.574219 L 249.550781 215 C 249.550781 214.78125 249.550781 214.492188 249.464844 214.226562 C 248.957031 212.019531 246.734375 210.75 243.429688 210.75 L 230.488281 210.75 C 226.671875 210.75 224.203125 212.40625 224.203125 215 L 224.203125 234.421875 Z M 224.191406 234.40625 " fill-opacity="1" fill-rule="nonzero"/><path fill="#00618a" d="M 308.605469 195.4375 C 303.328125 195.296875 299.296875 195.785156 295.851562 197.238281 C 294.871094 197.652344 293.308594 197.664062 293.148438 198.890625 C 293.6875 199.457031 293.773438 200.296875 294.199219 200.992188 C 295.023438 202.324219 296.414062 204.109375 297.652344 205.046875 C 299.003906 206.066406 300.398438 207.164062 301.855469 208.050781 C 304.4375 209.625 307.320312 210.527344 309.804688 212.101562 C 311.273438 213.03125 312.726562 214.203125 314.15625 215.253906 C 314.863281 215.773438 315.339844 216.582031 316.257812 216.90625 L 316.257812 216.757812 C 315.773438 216.140625 315.648438 215.296875 315.207031 214.65625 L 313.257812 212.703125 C 311.347656 210.160156 308.929688 207.945312 306.355469 206.097656 C 304.300781 204.621094 299.707031 202.632812 298.851562 200.242188 L 298.699219 200.089844 C 300.15625 199.925781 301.859375 199.398438 303.203125 199.039062 C 305.460938 198.4375 307.476562 198.589844 309.808594 197.992188 L 312.960938 197.089844 L 312.960938 196.488281 C 311.78125 195.277344 310.941406 193.679688 309.660156 192.585938 C 306.300781 189.71875 302.632812 186.863281 298.855469 184.476562 C 296.761719 183.152344 294.171875 182.292969 291.953125 181.171875 C 291.207031 180.796875 289.894531 180.597656 289.402344 179.96875 C 288.238281 178.484375 287.601562 176.597656 286.703125 174.878906 C 284.820312 171.25 282.96875 167.285156 281.300781 163.46875 C 280.160156 160.863281 279.417969 158.296875 278 155.960938 C 271.183594 144.753906 263.851562 137.988281 252.488281 131.339844 C 250.074219 129.925781 247.164062 129.367188 244.085938 128.636719 L 239.132812 128.335938 C 238.125 127.914062 237.078125 126.679688 236.128906 126.082031 C 232.367188 123.703125 222.714844 118.53125 219.925781 125.320312 C 218.164062 129.613281 222.554688 133.800781 224.125 135.980469 C 225.230469 137.507812 226.640625 139.21875 227.425781 140.933594 C 227.945312 142.0625 228.035156 143.195312 228.480469 144.386719 C 229.570312 147.316406 230.519531 150.527344 231.929688 153.246094 C 232.640625 154.621094 233.429688 156.070312 234.332031 157.300781 C 234.882812 158.054688 235.832031 158.386719 235.980469 159.550781 C 235.054688 160.851562 235 162.863281 234.480469 164.507812 C 232.132812 171.90625 233.019531 181.101562 236.429688 186.578125 C 237.476562 188.257812 239.941406 191.863281 243.332031 190.480469 C 246.296875 189.273438 245.621094 185.53125 246.484375 182.226562 C 246.675781 181.472656 246.558594 180.925781 246.933594 180.421875 L 246.933594 180.574219 L 249.636719 185.976562 C 251.632812 189.199219 255.183594 192.566406 258.1875 194.839844 C 259.746094 196.015625 260.988281 198.050781 262.992188 198.742188 L 262.992188 198.589844 L 262.839844 198.589844 C 262.449219 197.980469 261.839844 197.730469 261.339844 197.242188 C 260.164062 196.089844 258.859375 194.65625 257.886719 193.339844 C 255.152344 189.625 252.738281 185.558594 250.535156 181.328125 C 249.484375 179.308594 248.570312 177.078125 247.683594 175.023438 C 247.34375 174.230469 247.347656 173.03125 246.636719 172.621094 C 245.664062 174.125 244.234375 175.34375 243.484375 177.125 C 242.28125 179.96875 242.128906 183.433594 241.683594 187.03125 C 241.421875 187.128906 241.539062 187.0625 241.382812 187.183594 C 239.292969 186.679688 238.558594 184.527344 237.78125 182.679688 C 235.816406 178.007812 235.453125 170.488281 237.183594 165.113281 C 237.628906 163.722656 239.648438 159.339844 238.832031 158.058594 C 238.441406 156.773438 237.152344 156.019531 236.429688 155.050781 C 235.539062 153.84375 234.648438 152.246094 234.03125 150.847656 C 232.421875 147.207031 231.671875 143.121094 229.980469 139.4375 C 229.167969 137.679688 227.804688 135.898438 226.679688 134.347656 C 225.433594 132.613281 224.039062 131.335938 223.078125 129.253906 C 222.734375 128.507812 222.269531 127.320312 222.777344 126.550781 C 222.828125 126.324219 222.933594 126.132812 223.097656 125.96875 C 223.257812 125.804688 223.453125 125.699219 223.679688 125.648438 C 224.546875 124.980469 226.972656 125.871094 227.878906 126.25 C 230.285156 127.25 232.292969 128.203125 234.332031 129.554688 C 235.3125 130.191406 236.300781 131.457031 237.484375 131.808594 L 238.832031 131.808594 C 240.945312 132.292969 243.3125 131.960938 245.28125 132.558594 C 248.773438 133.621094 251.898438 135.269531 254.738281 137.0625 C 263.386719 142.527344 270.457031 150.304688 275.296875 159.597656 C 276.074219 161.089844 276.410156 162.515625 277.09375 164.101562 C 278.476562 167.28125 280.21875 170.582031 281.597656 173.707031 C 282.972656 176.828125 284.308594 179.972656 286.25 182.566406 C 287.269531 183.929688 291.210938 184.660156 293 185.417969 C 294.257812 185.949219 296.3125 186.503906 297.503906 187.21875 C 299.773438 188.589844 301.976562 190.222656 304.105469 191.726562 C 305.171875 192.476562 308.445312 194.121094 308.609375 195.480469 Z M 308.605469 195.4375 " fill-opacity="1" fill-rule="nonzero"/><path fill="#00618a" d="M 241.539062 138.238281 C 240.4375 138.214844 239.660156 138.355469 238.835938 138.535156 L 238.835938 138.6875 L 238.984375 138.6875 C 239.511719 139.765625 240.4375 140.460938 241.085938 141.390625 L 242.585938 144.542969 L 242.738281 144.390625 C 243.664062 143.734375 244.09375 142.6875 244.085938 141.089844 C 243.714844 140.695312 243.65625 140.203125 243.335938 139.734375 C 242.90625 139.113281 242.0625 138.757812 241.535156 138.234375 Z M 241.539062 138.238281 " fill-opacity="1" fill-rule="evenodd"/><path fill="#e48e00" d="M 305.09375 238.695312 C 305.09375 242.476562 308.078125 245.023438 311.417969 245.023438 C 314.757812 245.023438 317.746094 242.476562 317.746094 238.695312 C 317.746094 234.914062 314.757812 232.363281 311.417969 232.363281 C 308.078125 232.363281 305.09375 234.914062 305.09375 238.695312 Z M 316.328125 238.695312 C 316.328125 241.5625 314.136719 243.707031 311.417969 243.707031 C 308.667969 243.707031 306.503906 241.5625 306.503906 238.695312 C 306.503906 235.824219 308.664062 233.679688 311.417969 233.679688 C 314.132812 233.679688 316.328125 235.824219 316.328125 238.695312 Z M 313.121094 242.308594 L 314.539062 242.308594 L 312.464844 239.132812 C 313.578125 239.015625 314.417969 238.476562 314.417969 237.160156 C 314.417969 235.691406 313.492188 235.082031 311.703125 235.082031 L 308.886719 235.082031 L 308.886719 242.308594 L 310.101562 242.308594 L 310.101562 239.183594 L 311.230469 239.183594 Z M 310.101562 238.167969 L 310.101562 236.09375 L 311.5 236.09375 C 312.226562 236.09375 313.105469 236.230469 313.105469 237.074219 C 313.105469 238.085938 312.3125 238.171875 311.398438 238.171875 L 310.101562 238.171875 Z M 310.101562 238.167969 " fill-opacity="1" fill-rule="evenodd"/></svg>